<?xml version="1.0" encoding="UTF-8" standalone="no"?>
<!-- Created with Inkscape (http://www.inkscape.org/) -->

<svg
   width="86mm"
   height="86mm"
   viewBox="0 0 86 86"
   version="1.1"
   id="svg1"
   inkscape:version="1.4.2 (f4327f4, 2025-05-13)"
   sodipodi:docname="velowrench-logo-border-dark.svg"
   xml:space="preserve"
   inkscape:export-filename="velowrench-logo-dark.png"
   inkscape:export-xdpi="96"
   inkscape:export-ydpi="96"
   xmlns:inkscape="http://www.inkscape.org/namespaces/inkscape"
   xmlns:sodipodi="http://sodipodi.sourceforge.net/DTD/sodipodi-0.dtd"
   xmlns="http://www.w3.org/2000/svg"
   xmlns:svg="http://www.w3.org/2000/svg"><sodipodi:namedview
     id="namedview1"
     pagecolor="#818585"
     bordercolor="#000000"
     borderopacity="0"
     inkscape:showpageshadow="2"
     inkscape:pageopacity="0.0"
     inkscape:pagecheckerboard="0"
     inkscape:deskcolor="#d1d1d1"
     inkscape:document-units="mm"
     inkscape:zoom="2.8284271"
     inkscape:cx="287.79246"
     inkscape:cy="188.09041"
     inkscape:window-width="3840"
     inkscape:window-height="2036"
     inkscape:window-x="3828"
     inkscape:window-y="-12"
     inkscape:window-maximized="1"
     inkscape:current-layer="svg1"
     inkscape:export-bgcolor="#090909ff" /><defs
     id="defs1" /><ellipse
     style="fill:#090909;stroke:#74ff2b;stroke-width:0;paint-order:stroke fill markers;stroke-dasharray:none"
     id="path2"
     cx="43"
     cy="43"
     rx="42.141998"
     ry="42.141724" /><g
     inkscape:label="Calque 1"
     inkscape:groupmode="layer"
     id="layer1"><path
       id="path1"
       style="fill:#f9f9f9;fill-opacity:1;stroke:#000000;stroke-width:0;stroke-opacity:0.993569;paint-order:stroke fill markers"
       d="m 43.000001,13.342728 c -7.597909,0 -15.195605,0.370805 -16.480119,1.112421 -2.56903,1.483232 -16.480527,25.578593 -16.480527,28.545051 10e-7,2.966464 13.911497,27.061416 16.480527,28.544649 2.56903,1.483231 30.391616,1.483231 32.960645,0 2.56903,-1.483233 16.480118,-25.578185 16.480118,-28.544649 0,-2.966458 -13.911088,-27.061819 -16.480118,-28.545051 -1.284515,-0.741616 -8.882616,-1.112421 -16.480526,-1.112421 z m -0.01624,14.007206 A 15.712938,15.712938 0 0 1 58.696553,43.062721 15.712938,15.712938 0 0 1 42.983762,58.775515 15.712938,15.712938 0 0 1 27.270971,43.062721 15.712938,15.712938 0 0 1 42.983762,27.349934 Z" /></g></svg>
