<?xml version="1.0" encoding="UTF-8" standalone="no"?>
<!-- Created with Inkscape (http://www.inkscape.org/) -->

<svg
   width="108"
   height="108"
   viewBox="0 0 108 108"
   version="1.1"
   id="svg1"
   inkscape:version="1.4.2 (f4327f4, 2025-05-13)"
   sodipodi:docname="velowrench-logo-dark-safe.svg"
   xml:space="preserve"
   inkscape:export-filename="velowrench-logo-dark.png"
   inkscape:export-xdpi="96"
   inkscape:export-ydpi="96"
   xmlns:inkscape="http://www.inkscape.org/namespaces/inkscape"
   xmlns:sodipodi="http://sodipodi.sourceforge.net/DTD/sodipodi-0.dtd"
   xmlns="http://www.w3.org/2000/svg"
   xmlns:svg="http://www.w3.org/2000/svg"><sodipodi:namedview
     id="namedview1"
     pagecolor="#090909"
     bordercolor="#000000"
     borderopacity="0.25"
     inkscape:showpageshadow="2"
     inkscape:pageopacity="0.0"
     inkscape:pagecheckerboard="0"
     inkscape:deskcolor="#d1d1d1"
     inkscape:document-units="mm"
     inkscape:zoom="5.6568542"
     inkscape:cx="39.863145"
     inkscape:cy="70.357125"
     inkscape:window-width="3840"
     inkscape:window-height="2036"
     inkscape:window-x="-12"
     inkscape:window-y="-12"
     inkscape:window-maximized="1"
     inkscape:current-layer="layer1"
     inkscape:export-bgcolor="#090909ff" /><defs
     id="defs1" /><g
     inkscape:label="Calque 1"
     inkscape:groupmode="layer"
     id="layer1"><path
       id="path1"
       style="fill:#f9f9f9;fill-opacity:1;stroke:#000000;stroke-width:0;stroke-opacity:0.993569;paint-order:stroke fill markers"
       d="m 54.000005,23.879216 c -7.71666,0 -15.4331,0.3766 -16.73769,1.12981 -2.60918,1.50641 -16.7381,25.97836 -16.7381,28.99118 0,3.01282 14.12892,27.48436 16.7381,28.99077 2.60918,1.50641 30.86661,1.50641 33.47579,0 2.60918,-1.50641 16.73768,-25.97795 16.73768,-28.99077 0,-3.01282 -14.1285,-27.48477 -16.73768,-28.99118 -1.3046,-0.75321 -9.02145,-1.12981 -16.7381,-1.12981 z m -0.0165,14.22612 a 15.958515,15.958515 0 0 1 15.95836,15.95837 15.958515,15.958515 0 0 1 -15.95837,15.95836 15.958515,15.958515 0 0 1 -15.95836,-15.95836 15.958515,15.958515 0 0 1 15.95836,-15.95837 z"
       inkscape:label="path1" /></g></svg>
