<?xml version="1.0" encoding="UTF-8" standalone="no"?>
<!-- Created with Inkscape (http://www.inkscape.org/) -->

<svg
   width="86mm"
   height="86mm"
   viewBox="0 0 86 86"
   version="1.1"
   id="svg1"
   inkscape:version="1.4.2 (f4327f4, 2025-05-13)"
   sodipodi:docname="velowrench-logo-dark.svg"
   xml:space="preserve"
   inkscape:export-filename="velowrench-logo-dark.png"
   inkscape:export-xdpi="96"
   inkscape:export-ydpi="96"
   xmlns:inkscape="http://www.inkscape.org/namespaces/inkscape"
   xmlns:sodipodi="http://sodipodi.sourceforge.net/DTD/sodipodi-0.dtd"
   xmlns="http://www.w3.org/2000/svg"
   xmlns:svg="http://www.w3.org/2000/svg"><sodipodi:namedview
     id="namedview1"
     pagecolor="#090909"
     bordercolor="#000000"
     borderopacity="0.25"
     inkscape:showpageshadow="2"
     inkscape:pageopacity="0.0"
     inkscape:pagecheckerboard="0"
     inkscape:deskcolor="#d1d1d1"
     inkscape:document-units="mm"
     inkscape:zoom="2.8284271"
     inkscape:cx="287.43891"
     inkscape:cy="188.0904"
     inkscape:window-width="3840"
     inkscape:window-height="2036"
     inkscape:window-x="-12"
     inkscape:window-y="-12"
     inkscape:window-maximized="1"
     inkscape:current-layer="layer1"
     inkscape:export-bgcolor="#090909ff" /><defs
     id="defs1" /><g
     inkscape:label="Calque 1"
     inkscape:groupmode="layer"
     id="layer1"><path
       id="path1"
       style="fill:#f9f9f9;stroke:#000000;stroke-width:0;stroke-opacity:0.993569;paint-order:stroke fill markers;fill-opacity:1"
       d="m 43.172746,5.0254577 c -9.670896,0 -19.34152,0.4719739 -20.976497,1.4159297 C 18.926294,8.3292991 1.2192342,38.998754 1.2192342,42.774569 c 8e-7,3.775824 17.7070598,34.444758 20.9770148,36.33267 3.269955,1.887911 38.683557,1.887911 41.953511,0 3.269955,-1.887912 20.976495,-32.556846 20.976495,-36.33267 0,-3.775815 -17.70654,-34.4452699 -20.976495,-36.3331816 C 62.514783,5.4974316 52.843643,5.0254577 43.172746,5.0254577 Z M 43.152076,22.85434 A 20,20 0 0 1 63.151889,42.854149 20,20 0 0 1 43.152076,62.853966 20,20 0 0 1 23.152263,42.854149 20,20 0 0 1 43.152076,22.85434 Z" /></g></svg>
